<?xml version="1.0" encoding="utf-8"?>
<!-- Generator: Adobe Illustrator 19.2.1, SVG Export Plug-In . SVG Version: 6.00 Build 0)  -->
<svg version="1.1" id="layer" xmlns="http://www.w3.org/2000/svg" xmlns:xlink="http://www.w3.org/1999/xlink" x="0px" y="0px"
	 viewBox="0 0 652 652" style="enable-background:new 0 0 652 652;" xml:space="preserve">
<style type="text/css">
	.st0{fill:#A31D38;}
	.st1{fill:#FFD74F;}
	.st2{fill:#CD1543;}
</style>
<g>
	<path class="st0" d="M547.1,321.4v-6.5h2.9v5.6c0,1.3,0.6,2,1.7,2c1.1,0,1.8-0.7,1.8-2v-5.6h2.9v10h-2.9v-1.4
		c-0.7,0.8-1.5,1.6-2.9,1.6C548.4,325.1,547.1,323.7,547.1,321.4"/>
	<path class="st0" d="M558.3,322.1L558.3,322.1c0-2.2,1.7-3.2,4.1-3.2c1,0,1.7,0.2,2.5,0.4v-0.2c0-1.2-0.7-1.8-2.2-1.8
		c-1.1,0-1.9,0.2-2.8,0.5l-0.7-2.2c1.1-0.5,2.2-0.8,3.9-0.8c1.6,0,2.7,0.4,3.4,1.1c0.7,0.7,1.1,1.9,1.1,3.2v5.8h-2.8v-1.1
		c-0.7,0.8-1.7,1.3-3,1.3C559.9,325.1,558.3,324,558.3,322.1 M564.9,321.4v-0.5c-0.5-0.2-1.1-0.4-1.8-0.4c-1.2,0-2,0.5-2,1.4v0
		c0,0.8,0.6,1.2,1.6,1.2C564,323.2,564.9,322.4,564.9,321.4"/>
	<path class="st0" d="M570,314.9h2.9v1.4c0.7-0.8,1.5-1.6,2.9-1.6c2.2,0,3.4,1.4,3.4,3.7v6.5h-2.9v-5.6c0-1.3-0.6-2-1.7-2
		c-1.1,0-1.8,0.7-1.8,2v5.6H570V314.9z"/>
	<path class="st0" d="M582.2,322.1v-4.7H581v-2.4h1.2v-2.6h2.9v2.6h2.4v2.4h-2.4v4.3c0,0.7,0.3,1,0.9,1c0.5,0,1-0.1,1.4-0.4v2.3
		c-0.6,0.4-1.3,0.6-2.3,0.6C583.4,325.1,582.2,324.4,582.2,322.1"/>
	<path class="st0" d="M589.5,321.4v-6.5h2.8v5.6c0,1.3,0.6,2,1.7,2c1.1,0,1.8-0.7,1.8-2v-5.6h2.9v10h-2.9v-1.4
		c-0.7,0.8-1.5,1.6-2.9,1.6C590.7,325.1,589.5,323.7,589.5,321.4"/>
	<path class="st0" d="M601.2,314.9h2.8v1.4c0.7-0.8,1.5-1.6,3-1.6c1.3,0,2.3,0.6,2.8,1.6c0.9-1,1.9-1.6,3.3-1.6
		c2.1,0,3.4,1.3,3.4,3.7v6.5h-2.8v-5.6c0-1.3-0.6-2-1.7-2c-1.1,0-1.7,0.7-1.7,2v5.6h-2.9v-5.6c0-1.3-0.6-2-1.7-2
		c-1.1,0-1.7,0.7-1.7,2v5.6h-2.8V314.9z"/>
	<rect x="535.3" y="292.8" width="1.9" height="11"/>
	<path d="M539.4,295.5h1.9v1.3c0.5-0.8,1.3-1.4,2.6-1.4c1.8,0,2.9,1.3,2.9,3.2v5.3h-1.9v-4.7c0-1.3-0.6-2-1.7-2
		c-1.1,0-1.8,0.8-1.8,2.1v4.7h-1.9V295.5z"/>
	<path d="M548,302.7l0.8-1.3c0.9,0.7,1.8,1,2.7,1c0.8,0,1.3-0.3,1.3-0.9v0c0-0.6-0.9-0.9-1.8-1.2c-1.2-0.3-2.6-0.9-2.6-2.4v0
		c0-1.6,1.3-2.5,2.9-2.5c1,0,2.1,0.4,3,0.9l-0.7,1.4c-0.8-0.5-1.6-0.8-2.3-0.8c-0.7,0-1.2,0.3-1.2,0.8v0c0,0.6,0.9,0.9,1.8,1.2
		c1.2,0.4,2.5,0.9,2.5,2.4v0c0,1.8-1.3,2.6-3,2.6C550.3,304,549,303.5,548,302.7"/>
	<path d="M556.4,301.5v-4.4h-1v-1.6h1v-2.3h1.9v2.3h2.2v1.6h-2.2v4.1c0,0.7,0.4,1,1,1c0.4,0,0.8-0.1,1.2-0.3v1.6
		c-0.5,0.3-1,0.4-1.7,0.4C557.4,303.9,556.4,303.3,556.4,301.5"/>
	<path d="M562,292.4h2v1.8h-2V292.4z M562.1,295.5h1.9v8.3h-1.9V295.5z"/>
	<path d="M566.4,301.5v-4.4h-1v-1.6h1v-2.3h1.9v2.3h2.2v1.6h-2.2v4.1c0,0.7,0.4,1,1,1c0.4,0,0.8-0.1,1.2-0.3v1.6
		c-0.5,0.3-1,0.4-1.7,0.4C567.4,303.9,566.4,303.3,566.4,301.5"/>
	<path d="M571.9,300.8v-5.3h1.9v4.7c0,1.3,0.6,2,1.8,2c1.1,0,1.8-0.8,1.8-2v-4.7h1.9v8.3h-1.9v-1.3c-0.5,0.8-1.3,1.5-2.6,1.5
		C573,304,571.9,302.7,571.9,300.8"/>
	<path d="M581.6,301.5v-4.4h-1v-1.6h1v-2.3h1.9v2.3h2.2v1.6h-2.2v4.1c0,0.7,0.4,1,1,1c0.4,0,0.8-0.1,1.2-0.3v1.6
		c-0.5,0.3-1,0.4-1.7,0.4C582.5,303.9,581.6,303.3,581.6,301.5"/>
	<path d="M586.7,299.7L586.7,299.7c0-2.4,1.7-4.4,4-4.4c2.6,0,3.9,2.1,3.9,4.5c0,0.2,0,0.3,0,0.5h-6c0.2,1.4,1.1,2.1,2.4,2.1
		c0.9,0,1.6-0.3,2.2-1l1.1,1c-0.8,0.9-1.8,1.6-3.3,1.6C588.6,304,586.7,302.2,586.7,299.7 M592.8,299.1c-0.1-1.2-0.8-2.2-2.1-2.2
		c-1.1,0-1.9,0.9-2.1,2.2H592.8z"/>
	<path d="M600.8,297.1h-1v-1.6h1v-0.6c0-0.9,0.2-1.6,0.7-2c0.4-0.4,1-0.7,1.8-0.7c0.7,0,1.1,0.1,1.5,0.2v1.6
		c-0.4-0.1-0.7-0.2-1.1-0.2c-0.7,0-1.1,0.4-1.1,1.3v0.5h2.2v1.6h-2.1v6.7h-1.9V297.1z"/>
	<path d="M605.4,299.7L605.4,299.7c0-2.4,1.9-4.4,4.4-4.4c2.5,0,4.4,1.9,4.4,4.3v0c0,2.4-1.9,4.3-4.4,4.3
		C607.3,304,605.4,302,605.4,299.7 M612.3,299.7L612.3,299.7c0-1.5-1-2.7-2.5-2.7c-1.5,0-2.5,1.2-2.5,2.6v0c0,1.5,1,2.7,2.5,2.7
		C611.3,302.3,612.3,301.1,612.3,299.7"/>
	<path d="M615.6,295.5h1.9v1.9c0.5-1.2,1.5-2.1,2.9-2v2h-0.1c-1.6,0-2.8,1.1-2.8,3.3v3.2h-1.9V295.5z"/>
	<path d="M544.4,340L544.4,340c0-2.4,1.9-4.4,4.5-4.4c2.6,0,4.4,1.9,4.4,4.3v0c0,2.4-1.9,4.3-4.5,4.3
		C546.3,344.3,544.4,342.3,544.4,340 M551.4,340L551.4,340c0-1.5-1.1-2.7-2.6-2.7c-1.5,0-2.5,1.2-2.5,2.6v0c0,1.5,1.1,2.7,2.6,2.7
		C550.4,342.6,551.4,341.4,551.4,340"/>
	<path d="M555.1,335.7h1.9v1.3c0.5-0.7,1.3-1.4,2.6-1.4c1.2,0,2.1,0.6,2.5,1.5c0.7-0.9,1.6-1.5,2.8-1.5c1.8,0,2.9,1.2,2.9,3.2v5.3
		h-1.9v-4.7c0-1.3-0.6-2-1.7-2c-1,0-1.8,0.7-1.8,2.1v4.7h-1.9v-4.7c0-1.3-0.6-2-1.7-2c-1.1,0-1.8,0.8-1.8,2.1v4.7h-1.9V335.7z"/>
	<path d="M570,335.7h1.9v1.4c0.6-0.9,1.5-1.6,2.8-1.6c2,0,3.9,1.5,3.9,4.3v0c0,2.8-1.9,4.3-3.9,4.3c-1.4,0-2.3-0.7-2.8-1.5v3.8H570
		V335.7z M576.7,339.9L576.7,339.9c0-1.6-1.1-2.7-2.4-2.7c-1.3,0-2.4,1.1-2.4,2.7v0c0,1.6,1.1,2.7,2.4,2.7
		C575.6,342.6,576.7,341.6,576.7,339.9"/>
	<path d="M580.4,341v-5.3h1.9v4.7c0,1.3,0.6,2,1.8,2c1.1,0,1.9-0.8,1.9-2v-4.7h1.9v8.3H586v-1.3c-0.5,0.8-1.3,1.5-2.6,1.5
		C581.5,344.2,580.4,343,580.4,341"/>
	<path d="M590.6,341.8v-4.4h-1.1v-1.6h1.1v-2.3h1.9v2.3h2.3v1.6h-2.3v4.1c0,0.7,0.4,1,1,1c0.4,0,0.8-0.1,1.2-0.3v1.6
		c-0.5,0.3-1,0.4-1.7,0.4C591.6,344.2,590.6,343.6,590.6,341.8"/>
	<path d="M596.6,332.7h2.1v1.8h-2.1V332.7z M596.7,335.7h1.9v8.3h-1.9V335.7z"/>
	<path d="M600.9,335.7h1.9v1.3c0.5-0.8,1.3-1.4,2.6-1.4c1.9,0,3,1.3,3,3.2v5.3h-1.9v-4.7c0-1.3-0.6-2-1.8-2c-1.1,0-1.9,0.8-1.9,2.1
		v4.7h-1.9V335.7z"/>
	<path d="M610.6,345.6l0.7-1.4c0.9,0.6,1.8,0.9,3,0.9c1.7,0,2.6-0.9,2.6-2.6v-0.6c-0.7,0.9-1.6,1.5-2.9,1.5c-2,0-3.8-1.4-3.8-3.9v0
		c0-2.5,1.9-3.9,3.8-3.9c1.4,0,2.3,0.6,2.9,1.4v-1.2h1.9v6.6c0,1.4-0.4,2.4-1.1,3.1c-0.8,0.8-1.9,1.1-3.4,1.1
		C612.9,346.6,611.7,346.3,610.6,345.6 M616.9,339.5L616.9,339.5c0-1.4-1.1-2.3-2.5-2.3c-1.3,0-2.4,0.9-2.4,2.3v0
		c0,1.4,1.1,2.3,2.4,2.3C615.8,341.8,616.9,340.9,616.9,339.5"/>
	<path class="st0" d="M476.1,352.5c0,0-4.8,3.2-9.6,2.9c-2.5-0.2-4.5,0-7.7-2.9c-3-2.7-3.8-6.9-3.9-7.8c-0.5-0.3-0.8-0.2-1.2-0.6
		c-3.2-0.8-7.9-0.8-9.7,0.7c0.1,0.7,1.4,6.4,5.8,10.6c5.4,5.2,12.8,5.3,12.8,5.3c10.2,0.5,15.7-5.4,15.7-5.4L476.1,352.5z"/>
</g>
<rect x="407" y="292.1" width="9.6" height="51.9"/>
<g>
	<path class="st0" d="M450,288.7c8.6,0,15.5,6.9,15.5,15.5v15.7c0,8.5-7,15.5-15.5,15.5c-8.6,0-15.5-6.9-15.5-15.5v-15.7
		C434.5,295.6,441.5,288.7,450,288.7 M450,278.6c-14.2,0-25.7,11.4-25.7,25.6v15.7c0,14.1,11.5,25.6,25.7,25.6
		c14.2,0,25.7-11.4,25.7-25.6v-15.7C475.7,290.1,464.2,278.6,450,278.6"/>
</g>
<g>
	<path class="st0" d="M545.5,326.4c0,0-1,0.6-1.9,0.6c-0.5,0-0.9,0-1.5-0.6c-0.6-0.5-0.8-1.4-0.8-1.6c-0.1-0.1-0.2-0.1-0.2-0.1
		c-0.6-0.2-1.6-0.2-1.9,0.1c0,0.1,0.3,1.3,1.2,2.1c1.1,1,2.5,1.1,2.5,1.1c2,0.1,3.1-1.1,3.1-1.1L545.5,326.4z"/>
	<path class="st0" d="M540.3,314.5c1.3,0,2.3,1,2.3,2.3v3.1c0,1.3-1,2.3-2.3,2.3c-1.3,0-2.3-1-2.3-2.3v-3.1
		C538,315.5,539,314.5,540.3,314.5 M540.3,311.7c-2.8,0-5.1,2.3-5.1,5.1v3.1c0,2.8,2.3,5.1,5.1,5.1c2.8,0,5.1-2.3,5.1-5.1v-3.1
		C545.4,314,543.1,311.7,540.3,311.7"/>
	<path d="M503.8,335.8c-6.4,0-11.6-5.2-11.6-11.6v-12.6c0-6.4,5.2-11.6,11.6-11.6c4.7,0,8.7,2.8,10.6,6.8l8.5-3.1
		c-3.1-7.4-10.5-12.6-19.1-12.6c-11.4,0-20.7,9.2-20.7,20.6v12.6c0,11.4,9.2,20.6,20.7,20.6c8.5,0,15.8-5.1,19-12.5l-8.5-3.1
		C512.5,333.1,508.5,335.8,503.8,335.8"/>
	<path d="M539.7,342.4c-1.4,0-2.5-1.1-2.5-2.5v-2.7c0-1.4,1.1-2.5,2.5-2.5c1,0,1.9,0.6,2.3,1.4l1.8-0.7c-0.7-1.6-2.2-2.7-4.1-2.7
		c-2.4,0-4.4,2-4.4,4.4v2.7c0,2.4,2,4.4,4.4,4.4c1.8,0,3.4-1.1,4-2.7l-1.8-0.7C541.5,341.8,540.6,342.4,539.7,342.4"/>
	<polygon points="93.3,314.2 100.3,314.2 106.4,334.1 113,314.2 118.6,314.2 125.2,334.1 131.3,314.2 138.1,314.2 128,343.8 
		122.4,343.8 115.7,324.6 109,343.8 103.4,343.8 	"/>
	<path d="M155.2,331.5l-3.9-9.5l-3.9,9.5H155.2z M148.4,314.2h6l12.6,29.6h-6.8l-2.7-6.6h-12.5l-2.7,6.6h-6.6L148.4,314.2z"/>
	<polygon points="174.1,320.4 165.1,320.4 165.1,314.4 189.6,314.4 189.6,320.4 180.6,320.4 180.6,343.8 174.1,343.8 	"/>
	<polygon points="194.5,314.4 216.8,314.4 216.8,320.2 201,320.2 201,326.2 214.9,326.2 214.9,331.9 201,331.9 201,338.1 217,338.1 
		217,343.8 194.5,343.8 	"/>
	<path d="M237.1,328.7c3.2,0,5-1.7,5-4.2v-0.1c0-2.8-1.9-4.2-5.1-4.2h-6.5v8.4H237.1z M224,314.4h13.5c3.7,0,6.7,1,8.6,3
		c1.6,1.6,2.5,3.9,2.5,6.7v0.1c0,4.7-2.6,7.7-6.3,9.1l7.2,10.5h-7.6l-6.3-9.4h-5.1v9.4H224V314.4z"/>
	<polygon points="255.8,314.4 262.3,314.4 262.3,337.9 276.1,337.9 276.1,343.8 255.8,343.8 	"/>
	<path d="M301.7,329.2L301.7,329.2c0-5.1-3.7-9.3-8.9-9.3c-5.2,0-8.9,4.1-8.9,9.2v0.1c0,5,3.7,9.2,8.9,9.2
		C298.1,338.4,301.7,334.3,301.7,329.2 M277.1,329.2L277.1,329.2c0-8.4,6.6-15.3,15.7-15.3c9.1,0,15.6,6.8,15.6,15.1v0.1
		c0,8.4-6.6,15.2-15.7,15.2C283.7,344.3,277.1,337.6,277.1,329.2"/>
	<path d="M334.9,329.2L334.9,329.2c0-5.1-3.7-9.3-8.9-9.3c-5.2,0-8.9,4.1-8.9,9.2v0.1c0,5,3.7,9.2,8.9,9.2
		C331.3,338.4,334.9,334.3,334.9,329.2 M310.3,329.2L310.3,329.2c0-8.4,6.6-15.3,15.7-15.3c9.1,0,15.7,6.8,15.7,15.1v0.1
		c0,8.4-6.6,15.2-15.7,15.2C316.9,344.3,310.3,337.6,310.3,329.2"/>
	<path d="M109.8,299.6v-7.7h3v7.7c0,2.2,1.1,3.3,2.9,3.3c1.8,0,2.9-1.1,2.9-3.2v-7.8h3v7.6c0,4.1-2.3,6.1-6,6.1
		C112,305.6,109.8,303.6,109.8,299.6"/>
	<polygon points="129.6,291.8 132.4,291.8 138.7,300.2 138.7,291.8 141.7,291.8 141.7,305.4 139.1,305.4 132.5,296.8 132.5,305.4 
		129.6,305.4 	"/>
	<rect x="150.2" y="291.8" width="3" height="13.5"/>
	<polygon points="160.5,291.8 163.8,291.8 167.4,301.4 171,291.8 174.2,291.8 168.7,305.5 166,305.5 	"/>
	<polygon points="181.4,291.8 191.7,291.8 191.7,294.5 184.4,294.5 184.4,297.2 190.8,297.2 190.8,299.9 184.4,299.9 184.4,302.7 
		191.7,302.7 191.7,305.4 181.4,305.4 	"/>
	<path d="M199.5,291.8h6.2c1.7,0,3.1,0.5,4,1.4c0.8,0.8,1.2,1.8,1.2,3.1v0c0,2.2-1.2,3.6-2.9,4.2l3.3,4.8h-3.5l-2.9-4.3h-2.4v4.3h-3
		V291.8z M205.6,298.4c1.5,0,2.3-0.8,2.3-1.9v0c0-1.3-0.9-1.9-2.4-1.9h-3v3.9H205.6z"/>
	<path d="M217.8,303.4l1.8-2.1c1.2,1,2.5,1.6,4.1,1.6c1.2,0,2-0.5,2-1.3v0c0-0.8-0.5-1.1-2.7-1.7c-2.7-0.7-4.5-1.5-4.5-4.1v0
		c0-2.5,2-4.1,4.8-4.1c2,0,3.7,0.6,5.1,1.7l-1.6,2.2c-1.2-0.8-2.4-1.3-3.5-1.3c-1.1,0-1.8,0.5-1.8,1.2v0c0,0.9,0.6,1.2,2.9,1.8
		c2.8,0.7,4.3,1.7,4.3,4.1v0c0,2.7-2.1,4.2-5,4.2C221.5,305.6,219.4,304.9,217.8,303.4"/>
	<rect x="236.4" y="291.8" width="3" height="13.5"/>
	<polygon points="251,294.6 246.9,294.6 246.9,291.8 258.2,291.8 258.2,294.6 254,294.6 254,305.4 251,305.4 	"/>
	<polygon points="269.4,300 264.2,291.8 267.7,291.8 270.9,297.3 274.2,291.8 277.6,291.8 272.4,300 272.4,305.4 269.4,305.4 	"/>
	<path d="M294.6,298.6L294.6,298.6c0-3.9,3.1-7,7.3-7c4.2,0,7.2,3.1,7.2,7v0c0,3.9-3.1,7-7.3,7C297.7,305.6,294.6,302.5,294.6,298.6
		 M306,298.6L306,298.6c0-2.4-1.7-4.3-4.1-4.3c-2.4,0-4.1,1.9-4.1,4.2v0c0,2.3,1.7,4.3,4.1,4.3C304.3,302.9,306,301,306,298.6"/>
</g>
<polygon points="315.5,291.8 325.9,291.8 325.9,294.5 318.5,294.5 318.5,297.4 325,297.4 325,300.1 318.5,300.1 318.5,305.4 
	315.5,305.4 "/>
<g>
	<path class="st1" d="M51.6,312.4l-26.2,20.5c-4.2-13-4.1-26.6-4.4-40.4h61.2c-0.3,13.9-0.2,27.4-4.4,40.4L51.6,312.4z"/>
	<path class="st1" d="M72.9,344c-0.6,1.1-1.3,2.3-2.1,3.4c-4.7,7.1-11.6,12.4-19.2,15.9c-7.6-3.5-14.6-8.8-19.2-15.9
		c-0.7-1.1-2-3.3-2-3.3l21.3-16.9L72.9,344z"/>
	<path class="st2" d="M33.7,303c-3.1-0.7-5.9-2.9-5.2-5.8c0,0-0.1-0.8-0.4-0.9c0,0-0.1-0.1-0.1-0.1c-0.1,0-0.2-0.1-0.3-0.2
		c0,0-0.2-0.1-0.2-0.1c-0.1,0.1,0,0.2-0.1,0.3c0,0-0.1,0.1-0.1,0.1c-0.1,0-0.1,0.1-0.1,0.1c-0.2,0.2-0.1,0.6-0.1,0.9
		c0,0.1,0,0.1,0,0.2c-0.1,0,0,0-0.1-0.1c0,0-0.1-0.1-0.1-0.1c0,0-0.2-0.1-0.3-0.1c0-0.1,0-0.1-0.1-0.1c-0.1-0.1-0.1-0.3-0.2-0.5
		c0,0,0-0.2,0-0.2c0-0.2-0.5-0.5-0.3-0.4c0.1,0.1,0-0.1-0.3-0.1c-0.2,0-0.4,0-0.6,0c0,0-0.1,0-0.1,0.1c-0.2,0.2-0.4,0.3-0.6,0.3
		c0,0,0.1,0,0.1,0c0.1,0.2,0,0.3,0.1,0.5c0.1,0.2,0.2,0.3,0.3,0.4c0.1,0.1,0.4,0,0.5,0.2c0,0,0.2,0.1,0,0.3
		c-0.4,0.4-0.9,0.1-1.2,0.9c0.5-0.2,0.6,0.6,0.8,0.6c1,0.1,1.8,0.3,2.3,1.3c0.3,0.6-0.6,0.6,0.2,0.8c0.4,0.1,0.7,0.3,0.9,0.6
		c0.2,0.3,0.3,0.7,0.5,1c0.2,0.2,0.2,0.3,0.5,0.4c0.1,0.1,0.4,0.2,0.5,0.2c0.1,0,0.2,0.1,0.3,0.1c0.1,0,0.2,0.1,0.3,0.2
		c0.1,0.1,0.3,0.1,0.3,0.2c0.1,0.2,0,0.3,0.1,0.5c0,0,0.2,0,0.2,0c0.1,0,0.2,0,0.2,0c0.2,0,0.3-0.1,0.4-0.1c0.2,0,0.2,0,0.5,0
		c0.1,0,0.1,0,0.2,0c0.1,0,0.2,0.1,0.2,0c0.1-0.3,0.2-0.6,0.4-0.8c0.2-0.3,0.1-0.3,0.4-0.6C33.4,303.2,33.7,303,33.7,303"/>
	<path class="st2" d="M26,303.3c0.9,0.5,0.8,1.7,1.6,2.1c1.5,0.7,3.2,1.2,4.7,0.4c-0.3,1.1,0,2-0.1,2.1c-0.5,0.4-2-0.1-2.9-0.4
		c-0.7-0.3-1.2,0.7-1.9,0.6c0-0.1,0.1-0.3,0.1-0.5c-0.1-0.4-0.2-0.5-0.8-0.4c-0.4,0-0.2,0.3-0.8,0.6c-0.2-0.1-0.7-0.3-0.8,0.1
		c0,0.2-0.4-0.7-0.3-0.8c0.4-0.7,0.4-0.8,0.4-1c0-0.2-0.8-0.5-0.9-0.3c-0.2,0.4-1-1.4,1.2-1.3c-0.6-0.4-0.5-0.4-0.4-0.9
		c0-0.1-0.2-0.3-0.3-0.1c-0.1-0.2,0.1-0.4,0.2-0.4C25.3,303.1,25.6,303.1,26,303.3"/>
	<path class="st2" d="M30.3,298.9c1.3,0.3,3.3-1.4,4.4,0.6C33.8,299.2,31.4,300.5,30.3,298.9"/>
	<path class="st2" d="M41.2,301.8c0,1.7-1.8,3.5-0.4,5.2c-0.6,0-1.3-0.2-1.7-0.5c-0.2-0.2-0.2,0.8-0.1,1c0,0.2-1.1-1-1.5-0.8
		c-1.2,0.8-1.7,1.2-3.5,1.3c-0.5,0-0.7,0.4-0.9,0.8c-0.4-0.8-0.1-2.7,0.1-3.5c0.6-2.2,2.9-2.9,4.7-4c1.3-0.8,1.9-2.3,1.8-3.8
		C40.8,298.7,41.3,300.3,41.2,301.8"/>
	<path class="st2" d="M32.9,320.9c0.2,0.1,0.1,0.2,0,0.3c-0.2,0.1-0.3,0.3-0.4,0.4c-0.1,0.1-0.1,0.3-0.1,0.4c0,0.1,0.1,0.2,0.1,0.3
		c0,0.1,0.1,0.1,0.1,0.2c0,0,0.1,0.1,0.1,0.1c-0.1-0.2,0.2-0.3,0.3-0.3c1.1,0.7,1.2-0.7,1.9-1.1c0.3-0.2,0.9,0,0.8,0.6
		c0.7-0.4,0.9-1.3,1.4-1.8c1.2-1.3,2.8-2.1,4.3-2.8c-0.6-0.6-1.4-1.1-1.8-1.8c-0.2-0.3-0.5-1,0-0.9c1.9,0.5,3-0.7,3.2-2.1
		c2.8,0.4,3.5-2.3,3.9-4.3c0.2-1,0.7-1.1,0.1-2.7c-0.2-0.7,1.3-0.9,1-2.1c-0.1-0.3-0.5-0.7-0.7-0.7c0.2,0.6-0.9,0.8-1,1.1
		c-0.2,0.4-0.5,0.7-0.5,1.2c-0.9-1.3-0.2-2.8,0.7-4c1.3-1.7,3.9-0.8,4.9,0.3c0-0.6-0.4-1.3-0.8-1.6c1-0.1,2.1,0.5,3.5-0.2
		c0.8-0.4,1.6-0.8,2-1.7c-1.7,0.2-4-1.1-5.6-1.3c-2.9-0.5-4.8,1.5-5.8,3.8c-1,2.3-0.4,4.1,0.7,5.8c0.3,0.4-1,0.1-1.5,0.4
		c-0.5,0.2-0.7,0.8-0.6,1.4c0.6-0.7,2.2-0.3,2.4,0.9c0.2,1.5-1.3,3.7-2.8,3.1c-1.6-0.7-2.5-2.4-3-4.2c-1.4,1.2-3.9,0.2-5,1.3
		c-1.1,1.1,1.7,1.8,2.8,2.3c0.4,0.2,0.8,0.6,0.7,1.1c-1.7-1-3.8,0.1-3.7,2c0.1,1.4,1.8,2.2,3.2,2.3c0.6,0,0.9,0.7,0.2,1.1
		c-1.3,0.8-2.6,1.6-4,0.2c-0.2-0.2-1-0.1-1.2,0.3c-0.1,0.2-0.1,0.5-0.1,0.7c0.1-0.1,0.2-0.3,0.3-0.3c0.1,0,0.3,0.2,0.3,0.3
		c-0.1,0.7-1,0.2-1.3,0.8c0,0,0,0,0,0c0,0,0,0.1-0.1,0.1c-0.2,0.4-0.4,0.6,0,0.9c0-0.1,0.2,0.3,0.2,0.4c0-0.3,0.4-0.3,0.4-0.3l0.2,0
		L32.9,320.9z"/>
	<path class="st2" d="M27.1,314.4c-0.2-0.1-0.4,0-0.5,0.1c-0.1,0-0.2,0-0.3,0.1c0,0.1-0.1,0.1,0,0.2c0,0,0,0.1,0.1,0.1
		c-0.2,0-0.5-0.2-0.6-0.3c-0.1-0.1-0.1-0.1-0.2-0.2c0,0,0-0.1-0.1-0.2c0-0.1,0-0.1,0-0.2c0-0.2,0-0.3,0.1-0.5c0-0.1,0.1-0.1,0.1-0.2
		c0-0.1,0.1-0.1,0.1-0.1c0.1-0.1,0.3-0.2,0.4-0.3c0.2-0.1,0.5,0,0.7,0.1c0.2,0.1,0.4,0.1,0.6,0.1c0.1,0,0.3-0.3,0.2-0.3
		c-0.6-0.1-0.6-0.3-0.8-0.9c-0.1-0.1-0.2,0-0.3,0.1c0-1.1,1.4-1.2,1.9-0.8c0.8,0.7,0.2,2,1.2,2.3c0.5,0.2,1.1,0.3,1.7,0.1
		c1-0.4,0-1.4,0.3-2.3c0.6-1.7,2.1-1.8,3.8-0.1c-1.5,0.5-2.3,2.5-1.4,3.9c-1.4-0.5-3.1,0.4-4,1c0.9-0.9-0.4-1.6-0.7-1.4l-0.4,0.3
		c-0.2,0.2-0.2,0.5-0.4,0.7c-0.1,0.1-0.2,0.1-0.4,0.2c-0.2,0.1-0.4,0-0.6-0.1c0,0-0.2,0-0.2,0.1c-0.1,0.1,0,0.2,0,0.2
		c0,0-0.2-0.1-0.2-0.1c-0.1-0.1-0.3-0.2-0.4-0.3c-0.1-0.1-0.1-0.5,0-0.6c0.1-0.2,0.3-0.2,0.4-0.4C27.3,314.6,27.1,314.4,27.1,314.4"
		/>
	<path class="st2" d="M60,299.4c0.1,0.1,0,0.3-0.1,0.3c-0.2,0-0.4,0-0.5,0c-0.6,0.2-0.6,1.8-0.6,1.6c0.1-0.2,0.6-0.1,0.9,0
		c0.5,0.1,0.9-0.9,1.2-0.9c0.8,0.1,1.5,1,1.8,1.7c0.1,0.1-0.3,0.1-0.4,0.5c1.1-0.1,1.9,0.6,2.7,1.2c0.4-0.6,0.7-1,1.2-1.5
		c-1.6-1.5-4.7-2-4.3-4.8c0.1-0.4-0.3-0.7-0.5-0.9c-0.2-0.2-0.7-0.2-1-0.3c0.3,0.6-0.2,0.7-0.2,1.7c0,0-0.1,0-0.1,0
		c-0.2-0.1-0.4-0.2-0.5-0.3c-0.2-0.1-0.3-0.1-0.5,0c-0.1,0-0.2,0.1-0.3,0.1c-0.1,0.1-0.2,0.2-0.3,0.4c0,0,0,0.1-0.1,0.1
		c0,0-0.1,0.1-0.1,0.2c0.1,0,0.3,0,0.4,0.1c0.1,0.1,0.1,0.2,0.2,0.4c0.1,0.1,0.2,0.1,0.4,0.2C59.5,299.4,59.7,299.4,60,299.4"/>
	<path class="st2" d="M64.1,298.3c1-0.1,2-0.8,3.1,0.5c-0.2-0.1-0.4-0.1-0.6,0c-1.2,1-2.7,0.6-3.5-0.6
		C63.5,298.1,63.9,298.3,64.1,298.3"/>
	<path class="st2" d="M68.4,301.9c1.6-0.8,3.3-1.5,3.9-3.5c0.1-0.4,0.4,0.6,0.5,0.6c0.9,2.5-0.9,4.9-0.5,7.4
		c-0.6-0.3-1.2-0.6-1.9-0.6c-2.2-0.1-2.8,1.3-2.9,1.2c-0.6-0.6-2.4-1.1-2.2-1C64.3,305,67.3,302.4,68.4,301.9"/>
	<path class="st2" d="M64,318.2c0.2,0.3-0.1-0.2,0.2,0.4c1.2-0.5,2.4-1.1,3.7-0.5c-0.6-2.6,1.4-3.3,1.5-3.7c0.2-0.6-1-1.9-2-1.5
		c-1.2,0.4-0.7,2-1,3.1c-0.1,0.6-0.9,1.1-1.5,0.8c-1-0.4-1.4-1.3-1.7-2.4c-0.2-0.7-1.6-0.8-1.9-0.2c-0.9,1.7,0.5-0.2,0.4,1.1
		c0,0.2-1,0.1-1.2,0.8c-0.2,0.5,0.3,0.8,0.9,1c0.1,0-0.1-0.3,0-0.3c0.1,0,0.6,0.2,0.5,0.2c-0.6,0.4-0.7,1.2,0.3,1.5
		c0,0-0.1-0.3,0-0.4C63.1,317.6,64,318.2,64,318.2"/>
	<path class="st2" d="M46.2,334.9c1,0.5,1.3,0,2.6-0.2c0.2,0,0.9,0.4,1.1,0.7C48.6,335.6,47,336.7,46.2,334.9"/>
	<path class="st2" d="M45.7,335.9c-0.1-0.1-0.1-0.1-0.2-0.1c-0.1,0-0.2-0.1-0.3-0.1c0,0-0.2,0-0.2,0c0,0.1,0.1,0.2,0,0.2
		c-0.1,0.1-0.1,0.1-0.2,0.2c0,0.1-0.1,0.1-0.1,0.2c0,0.1-0.1,0.2-0.1,0.4c0,0.1,0,0.2,0,0.3c0,0,0.1,0.2,0.1,0.2
		c0,0,0.2,0.2,0.1,0.2c0.2,0.2,0,0.1,0.3,0.3c0.1,0.1-0.1,0.3-0.2,0.3c-0.8-0.2-0.9-1.1-1.6-1.4c-0.5-0.2-1.2,0.2-1.3,1
		c0.2,0,0.3,0,0.4,0.2c0.2,0.8,1.3,0.3,1.3,0.9c0,0.4-0.8-0.1-1.2,0.2c-0.5,0.3-0.5,1.2-0.1,1.7c0.4-0.4,0.9,0.2,1.3-0.1
		c0.3-0.2,0.4-0.5,0.7-0.6c0.9-0.4,1.1,0.4,0.9,1.2c0.5-0.2,1.6-0.4,1.8-0.5c0.5-0.1,0.5-1.2,1-1.6c-0.8,0-1.8-0.3-2-1.1
		c0-0.1,0-0.2,0-0.3c0-0.3,0-0.6-0.1-0.9c0,0,0-0.1-0.1-0.1c0,0-0.1-0.1-0.1-0.1c-0.1-0.1-0.2-0.2-0.3-0.2
		C45.8,336,45.7,336,45.7,335.9"/>
	<path class="st2" d="M39.8,341.4c0.3,0.7-1.4-0.4-2,0.6c-0.2,0.3-0.1,1-0.1,1.4c0.4-0.4,0.8,0.3,1.5-0.3c0.1,0.1,0.2,0.1,0.1,0.2
		c-0.3,0.3-0.4,0.6-0.3,0.9c0.1,0.2,0.7,0.6,0.7,0.6c0.1-0.4,0.8,0,0.9-0.9c0.1-0.4,0.2-0.9,0.7-0.7c0.5,0.2,0.6,0.7,0.5,1.3
		c0.8-0.2,2.1-1,2.9-0.4c1.1,0.8,2.8,1.1,4.1,1.5c-0.8-0.6-1.1-2.1-1-3c-2,0.4-4,0.3-5.8-0.5c-0.5-0.2-0.4-0.8-0.6-1.3
		c-0.2-0.5-0.8-1-1.4-1c-0.3,0-1.1,0.7-1,0.7c-0.1,0,0,0.1-0.1,0.1c0.1-0.1,0.3,0,0.4,0.2c0.1,0.1,0.1,0.2,0.2,0.3
		C39.6,341.3,39.8,341.3,39.8,341.4"/>
	<path class="st2" d="M44.5,352c0.4-0.5,0.7-0.2,0.9-0.2c0.4,0,0.4,0.6,0.3,0.9c1.6-0.7,3-1.8,4.9-1.4c-1.1-1.1-0.7-3.5,0.8-3.8
		c0,0-1-0.2-1.1-0.2c-1.3-0.8-2.9-1.6-3.8,0.1c-0.4,0.9,0.4,1.5,1,2.3c0.1,0.1-0.1,0.2-0.2,0.2c-1.4,0.4-4.1,0.6-4.2-1.5
		c0-0.2-0.6-0.4-0.9-0.4c-1.1,0-1,1.4-0.9,1.3c0.2-0.2,0.9-0.1,0.9,0.4c-0.1,0.5-1.1-0.3-1.5,0.2c-0.3,0.4-0.3,1.1-0.1,1.6
		c0-0.2,0.2-0.3,0.3-0.3c1.1-0.2,1.2,0.2,0.8,1.3c0,0.1,0.3,0.7,0.6,0.8c0,0,0-0.2,0-0.2c0,0,0.1-0.1,0.1-0.1c0.1,0,0.2,0,0.4-0.1
		c0.1,0,0.1-0.1,0.2-0.1c0.1-0.1,0.1-0.1,0.2-0.2c0.3-0.3,0.5-0.7,0.9-0.8C44.2,351.8,44.4,351.9,44.5,352"/>
	<path class="st2" d="M55.9,357c1-1,1.7-2.3,2.8-3.3c-1.2-0.7-2.6-1.4-2.8-3c0-0.1,0.2-0.2,0.2-0.2c1.6,0.9,3.8,1,5-0.7
		c0.9-1.3,1.4-3.5,3.2-3.7c-0.6-1.2,0.1-2.5,1.1-3.2c-0.3-0.1-0.8-0.4-1.2-0.3c-0.5,0.1-0.7,0.7-1.2,0.8c0.8-2.8-0.8-6.8-3.9-6.7
		c-0.6,0-1.3,0.5-1.5,1.1c-0.2,0.6-0.3,1.4,0.2,1.9c1,1.2,1.8,2.5,1.4,4.1c0.7-0.6,1.4-1.5,1.4-2.5c0-0.2,0.4-0.1,0.5-0.2
		c0.9-1.2-0.5-2-1.3-2.8c-0.2-0.2,0.3-0.5,0.4-0.5c2.7,0.8,2.9,4.1,1.8,6.2c-0.3-0.4-1.4-0.3-1.8-0.4c1.3,0.6,0.9,0.7,0.9,0.9
		c-0.1,0.4-1.2,0.2-1.4,0.5c-0.4,0.5-0.7,0.7-0.7,2.3c0.5-0.6,1.2-1.4,1.9-1c1.6,0.8-0.1,3.5-1.6,4c-1.3,0.4-2.4,0-3.2-1.1
		c-1.1-1.6-0.3-3.5-1.1-5.1c-0.7,0.2-0.5,1-0.9,0.9c-1.2-0.6-1.9-1.9-2.8-3c-0.4,0.1-0.5,0.5-0.9,0.5c-0.5,0-1.5-0.2-1.7,0.1
		c-0.2,0.3-0.4,2.5,1.8,3.4c1.5,0.6,2.7,1,3.6,2.2c-0.6,0.1-0.8-0.2-1.4-0.3c-0.5,0-0.8,0.2-1.2,0.4c-0.4,0.2-0.8,0.9-0.7,1.5
		c0.3,2.7,3.5,2.7,5,4.5c0.3,0.3-0.4,1.5-1,1.9c-0.5,0.4-1.7-0.6-1.5-1.5c0.2-0.7-1.5-1.1-2.1-0.4c0.2,0,0.3,0.1,0.3,0.2
		c-0.1,0.6,0.7,0.7,0.7,1c0,0.4-0.4-0.2-0.7-0.2c-0.7-0.1-1.3,0.1-1.7,0.6c-0.1,0.2-0.4,0.4-0.3,0.7c0.5-0.3,0.8,0.6,1.3,0.3
		c0.3-0.1,0.5-0.4,0.9-0.3c0.1,0,0.3,0.2,0.2,0.3c-0.9,0.6-1.7,1.4-1,2.4c0-0.2,0.2-0.4,0.3-0.4c0.3-0.1,0.6,0.1,0.9,0
		c0.4-0.1,0.2-0.6,0.4-0.9c0.3-0.5,1.2-1.3,1.7-0.7c0.1,0.1,0,0.5-0.2,0.5c0.3,0,0.5,0.3,0.8,0.2c0.1,0,0.1,0,0.2,0
		c0.1,0,0.1,0,0.2-0.1c0.1-0.1,0.2-0.2,0.3-0.4c0.2,0,0.5,0,0.6-0.1C55.7,357.2,55.8,357,55.9,357"/>
	<path class="st2" d="M51.3,337.4c1.7-0.5,3.7-1.4,4.1-3.3c0.5,0.3,0.7,1,0.7,1.5c0,2.4-1,4.5-0.5,7.1c0.1,0.3,0.6,1.2,0.3,1.1
		c-0.3-0.1-0.9-0.7-1.2-0.4c-0.4,0.3-0.4,0.9-0.6,0.7c-0.8-0.5-1.6-1.2-2-2c-0.1-0.3-0.1-1.1-0.2-1c-0.6,0.6-1.8,0.8-2.7,0.9
		c0.2-0.2,0.4-0.9,0.4-1.1c-0.7-0.3-1.7,0.8-1.7,0.7c0-0.4,0.1-0.5,0.1-0.6C48.6,339.4,49.6,337.9,51.3,337.4"/>
	<path class="st2" d="M38.3,296.1c0.5,0,0.8-0.3,1.1-0.6c0,0.3,0.4,0.6,0.2,0.9c-0.2,0.3-0.6,0.5-0.7,0.9c-0.2,0.6,0.3,1.3,0,1.9
		c-1.1,1.9-3.6,1.3-5.3,1.7c0.1-0.2,0-0.5-0.2-0.6c0.7,0.1,1.7-0.1,1.9-0.6c0.2-0.7,0.4-1.2,0-1.8c-0.5-0.9-1.7-0.5-2.5-0.2
		c-0.1-0.6,0.4-0.9,0.7-1c0.9-0.2,1.7-0.6,2.5-0.9C36.9,295.5,37.6,296.1,38.3,296.1 M37.1,297c0.1,0,0.1-0.1,0.1-0.1
		c-0.6-0.9-1.4-0.8-1.7,0C35.2,297.4,36.5,297.3,37.1,297"/>
	<path class="st2" d="M70.7,299.6c-0.2,0.2-0.6,0.2-0.9,0.4c-0.2,0.1-0.3,0.2-0.5,0.3c-0.1,0-0.3,0.2-0.4,0.2
		c-0.2,0.1-0.2,0-0.4,0.1c-0.1,0-0.2,0-0.3,0c-0.1,0-0.6,0-0.7,0c-0.3,0-0.4,0-0.7,0c-0.2,0-0.4-0.1-0.5-0.1c-0.1,0-0.2-0.1-0.4-0.1
		c0-0.1,0-0.3,0.1-0.3c0.1-0.1,0.2,0,0.4,0c0,0,0.3,0,0.3,0c0,0,0.1,0,0.1,0c0.1,0,0.2,0,0.2-0.1c0.1,0,0.2-0.1,0.3-0.1
		c0,0,0.1-0.1,0.1-0.1c0.1-0.1,0.1-0.1,0.2-0.2c0.2-0.2,0.3-0.4,0.3-0.7c0-0.2,0-0.4,0-0.6c0,0,0-0.1,0-0.1c0-0.2-0.1-0.3-0.2-0.5
		c-0.5-0.9-1.7,0-2.5-0.1c0-0.2,0-0.5,0.1-0.6c0.6-0.7,1.4-0.4,1.9-0.7c1.5-1.1,1.9-0.3,3.6,0.1c0.5,0.1,1.2-0.2,1.6-0.4
		c0.1,0,0.1,0.7,0.1,0.8c-0.2,0.5-0.7,0.5-0.9,0.9c-0.3,0.7-0.3,1.6-1,1.9 M69.6,296.7C69.7,296.6,69.5,296.7,69.6,296.7
		c-0.7-0.3-1.6-0.8-1.9,0.1C67.5,297.5,69,297,69.6,296.7"/>
	<path class="st2" d="M53.5,332.5c0.7,0.2,1.5,0.2,1.9-0.4c0.2,1-0.7,1.1-0.8,1.5c-0.2,0.7-0.2,1.4-0.9,1.8
		c-1.4,0.7-3.1,1.6-4.7,1.7c0-0.2-0.1-0.6,0.1-0.6c0.6,0,1-0.4,1.1-0.8c0.2-0.5,0-1.6-0.4-1.8c-0.5-0.3-0.9,0.1-1.3,0.3
		c-0.2-0.5,0.6-1.3,1.8-1.2c0,0,0.6-0.7,0.6-0.7C51.6,331.9,52.5,332.2,53.5,332.5 M51.4,333.7c0.3,0.1,1.1-0.3,1.4-0.5
		c0.1,0,0.1-0.1,0.2-0.2c0,0,0,0,0,0c-0.2-0.1-0.4-0.1-0.7-0.1c-0.2,0-0.3-0.1-0.5-0.2c0,0-0.1,0-0.1,0c-0.1,0-0.1,0.1-0.1,0.1
		c-0.1,0-0.2,0-0.3,0.1c-0.1,0.1-0.1,0.1-0.2,0.2c0,0.1,0,0.3,0.1,0.4C51.2,333.6,51.3,333.7,51.4,333.7"/>
	<path class="st2" d="M75.1,325.7c0-0.2,0.6-0.9,0.6-1.4c0.1-1.7,1.1-2.6,1.1-4.4c0-0.5-2-0.9-2.1-2c0-0.5-0.2-1.3,0.3-1.3
		c0.7,0,1.3-0.1,1.8-0.5c2.1-1.8,0.3-4.4,0.1-6.6c-0.1-0.5,0.9-1.5,0.8-1.9c-0.1-1.9-0.5-3.6,0.2-5.5c-0.5,0.5-0.7,1.3-1.1,1.7
		c-0.2,0.2-0.3-0.2-0.3-0.3c0.3-1.6,0.9-3.1,1.7-4.6c0.9-1.8,0.4-3.3-1.2-3.9c-1.5-0.5-3,0.9-3.2,2.4c-0.2,1.3,0.3,2.9,0.6,4
		c0.1,0.3,0,0.7,0.1,1c0.3-1.1,0.3-2.2,0.3-3.4c0-0.3,0.2-0.7,0.5-0.7c1-0.3,1.5,0.4,1.4,1c-0.2,1.7-0.6,3.1-1,4.8
		c-0.5,2,0.2,3.9,0.4,5.9c-0.8-0.4-1.6-0.5-1.9,0.7c-0.2,0.6,0.4,1.3,0.6,1.8c0-0.8,0.7-1.8,1.4-1.3c0.9,0.6,0.9,3.3,0.7,3.6
		c-0.4,0.8-1.1,1.3-2,1.1c-0.5-0.2-0.3-0.9-0.6-1.3c-1.7-1.7-2.5-3.8-2.6-6.3c0-0.3,0.2-1.3,0.1-1.3c-2.2-0.9-3.2,0-4.2,1.3
		c-0.2-0.4-1-0.9-1.1-0.8c-0.4,0.8-0.3,2.2,0.3,2.7c1.7,1.5,3.4,2.5,4.4,4.6c-1,0.1-2,0.4-2.4,1.5c-0.4,1.1-0.3,2.7,0.9,3.1
		c1,0.4,2.6,0,3,0c1,0.1,2.2,1,2,2c0,0.1-0.4,2.3-1.4,1.7c-0.5-0.3-0.2-1.5-1-1.7c-1.1-0.3-1.4,1.3-1.2,1.1c0.3-0.3,0.6,0.2,1.3,0.6
		c-2.3-0.5-1.6,1.6-1.5,1.4c0.1-0.3,0.5,0,1.3,0c0,0-0.2,0.2-0.2,0.2c-0.1,0.2-0.2,0.3-0.3,0.5c0,0.1,0,0.2,0,0.3
		c0,0.1,0,0.2,0.1,0.3c0,0,0,0,0.1,0.1c0,0,0,0.1,0,0.1c0.1,0,0-0.2,0.1-0.2c0,0,0.1,0,0.2,0c0.1,0,0.1,0.1,0.2,0.1
		c0.1,0,0.1,0,0.2,0c0.2,0,0.2,0,0.3,0c0.1,0,0.2-0.1,0.3-0.1c-0.1,0.1,0.2-0.1,0.1-0.1c0.1-0.3,0.2-0.2,0.3-0.3
		c0.2-0.5,0.5-0.5,1-0.4c0.1,0,0.1,0.1,0.2,0.2c0,0.1,0.1,0.3,0.1,0.2C75,325.4,75.1,325.5,75.1,325.7"/>
	<path class="st2" d="M58.7,304.8c-0.1-0.1-0.2-0.3-0.3-0.4c0,0-0.1-0.1-0.1-0.1c0-0.1-0.1-0.1-0.1-0.2c-0.1-0.3,0-0.7,0.2-0.9
		c0,0,0,0,0,0c0,0,0.1,0,0.1-0.1c0,0,0.1,0,0-0.1c0,0,0,0,0,0c0.1-0.1,0.1-0.2-0.1-0.2c0.1,0,0.2,0,0.3,0c0,0,0.1,0,0.1,0
		c0.4,0,0.8,0.2,0.9,0.6l0.1,0.1c0.4,0.9,0.2,3,2.3,3.5c1.1,0.3,2.2,0.6,3.3,0.6c-0.3,1.1-0.3,2.5,0.6,3.2c-1.3-0.7-2.1-0.5-3.2-1.6
		c-0.5-0.5-1.6-1.1-2.2-1c-0.2,0,0.3-0.7-0.2-0.9c-0.3-0.1-1.2-0.1-1.4,0.1c-0.7,1.1-1.5,1.1-1.7,1.3c0.3-0.2-1.2-1.4,0.7-2.1
		c0.2-0.1,0.2-0.5,0-0.6c-0.4-0.2-0.7,0.1-1,0.3c-0.4,0.2-0.5-0.6-1.1-0.3c-0.1-1.9,1.5-2,2.5-0.9c0.1,0.1,0.4,0,0.2-0.1L58.7,304.8
		z"/>
	<path d="M20.4,291.9l0,0.6c0,1.4,0.1,2.8,0.1,4.1c0.4,17.9,0.7,34.8,11.4,51.1c4.4,6.7,11.1,12.3,19.5,16.1l0.3,0.1l0.2-0.1
		c8.3-3.9,15.1-9.4,19.5-16.1c10.6-16.2,11-33.1,11.4-51c0-1.4,0.1-2.8,0.1-4.1l0-0.6H20.4z M27.1,335.9l24.5-19.4l24.4,19.3
		c-0.6,1.6-1.3,3.2-2.1,4.8l-22.4-17.7l-22.5,17.7C28.4,339.1,27.7,337.5,27.1,335.9 M70.3,347.1c-4.2,6.4-10.7,11.8-18.7,15.6
		c-8-3.7-14.5-9.1-18.7-15.6c-0.7-1.1-1.4-2.2-2-3.3l20.8-16.4l20.7,16.3C71.7,344.9,71,346,70.3,347.1 M81.5,296.7
		c-0.3,12.3-0.5,24.2-4.1,35.6L51.6,312l-25.8,20.3c-3.7-11.5-3.9-23.3-4.2-35.7c0-1.2-0.1-2.3-0.1-3.5h59.9
		C81.5,294.3,81.5,295.5,81.5,296.7"/>
	<rect x="372.8" y="291.9" width="3" height="71.6"/>
</g>
</svg>
